<?xml version="1.0"?>
<svg width="280" height="240" xmlns="http://www.w3.org/2000/svg" xmlns:svg="http://www.w3.org/2000/svg" version="1.1">
 <defs id="defs1264">
  <clipPath clipPathUnits="userSpaceOnUse" id="clipPath160">
   <path d="m0,500l500,0l0,-500l-500,0l0,500z" id="path158"/>
  </clipPath>
 </defs>
 <metadata id="metadata1267">image/svg+xml</metadata>
 <g class="layer">
  <title>Layer 1</title>
  <g id="layer1">
   <text fill="#069933" fill-rule="nonzero" font-family="&#x27;Roboto Condensed&#x27;" font-size="37.2px" font-weight="bold" id="text148" stroke-width="1.33" x="47.33" y="257.18">
    <tspan fill="#069933" id="tspan146" stroke-width="1.33" x="47.33" y="290.09"/>
   </text>
   <g id="g154" stroke-width="0.76" transform="matrix(1.7172051,0,0,-1.7998263,-82.753504,369.88691)">
    <g clip-path="url(#clipPath160)" id="g156" stroke-width="0.76">
     <g id="g182" stroke-width="0.76" transform="translate(97.0522,132.6396)"/>
    </g>
   </g>
   <path d="m95.63,215.49c-30.3,-3.52 -54.49,-23.48 -75.44,-62.22c-3.99,-7.38 -11.82,-25.08 -14.67,-33.15l-2.1,-5.94l13.99,0.43c14.17,0.43 22.9,1.41 36.17,4.08c13.35,2.69 27.93,7.63 29.12,9.87c0.39,0.72 0.7,3.19 0.7,5.5c0,16.95 9.28,38.85 23.2,54.79c5.07,5.81 16.28,16.18 21.63,20.01c2.16,1.55 3.94,3 3.96,3.24c0.05,0.68 -10.27,2.7 -17.66,3.46c-7.69,0.79 -11.69,0.77 -18.9,-0.07z" fill="#069933" id="path833" stroke="#7e6262" stroke-miterlimit="4" stroke-opacity="0.01" stroke-width="1"/>
   <path d="m131.56,203.9c-12.26,-9.26 -24.49,-22.67 -31.28,-34.29c-5.53,-9.46 -9.5,-21.95 -10.4,-32.65c-0.98,-11.82 1.92,-28.97 7.24,-42.74c7.24,-18.77 22.13,-43.47 37.13,-61.57l5.82,-7.03l2.08,2.43c4.89,5.73 19.63,25.92 23.82,32.63c10.23,16.4 17.57,32.54 21.49,47.27c2.05,7.71 2.16,8.88 2.21,21.94c0.05,12.3 -0.13,14.44 -1.58,19.76c-4.35,15.92 -13.61,30.66 -27.83,44.3c-7.67,7.35 -18.05,15.18 -20.14,15.18c-0.93,0 -4.61,-2.25 -8.56,-5.23zm13.89,-13.73c9.04,-9.2 13.02,-18.09 13.04,-29.15c0.02,-7.22 -0.97,-11.6 -4.54,-20.01c-2.3,-5.43 -9.62,-17.06 -12.34,-19.61c-1.79,-1.68 -1.82,-1.68 -3.13,-0.32c-5,5.19 -14.18,22.5 -15.94,30.03c-3.24,13.91 0.59,26.7 11.49,38.29c2.89,3.07 5.58,5.58 5.98,5.58c0.4,0 2.85,-2.16 5.44,-4.81z" fill="#069933" id="path835" stroke="#7e6262" stroke-miterlimit="4" stroke-opacity="0.01" stroke-width="1"/>
   <path d="m162.08,215.65c-0.78,-0.18 -4.21,-0.84 -7.62,-1.47c-3.41,-0.62 -6.35,-1.37 -6.53,-1.65c-0.17,-0.29 2.46,-2.71 5.84,-5.4c17.1,-13.52 30.74,-30.86 36.93,-46.97c2.55,-6.62 4.97,-17.72 5.45,-25.03l0.47,-6.98l3.65,-1.62c14.63,-6.47 38.59,-10.98 63.87,-12.04c10.01,-0.41 11.49,-0.34 11.49,0.6c0,2.01 -6.44,17.82 -11.69,28.67c-17.72,36.65 -36.99,57.87 -61.14,67.34c-8.22,3.22 -14.72,4.32 -27.28,4.61c-6.61,0.15 -12.66,0.13 -13.44,-0.06z" fill="#069933" id="path837" stroke="#7e6262" stroke-miterlimit="4" stroke-opacity="0.01" stroke-width="1"/>
  </g>
 </g>
</svg>